<svg xmlns="http://www.w3.org/2000/svg" xmlns:xlink="http://www.w3.org/1999/xlink" viewBox="0 0 600 250" preserveAspectRatio="xMidYMid" style="display: block; shape-rendering: auto; background: transparent;" width="600" height="250"><style type="text/css">
  .ld-text text {
    text-anchor: middle;
    dominant-baseline: middle;
    font-size: 80px;
    opacity: 0;
    user-select: none;
    pointer-events: none;
  }
</style>
<g class="ld-text" style="transform-origin:300px 125px;transform:scale(1)">
<g transform="translate(300,125)">
  <g transform="scale(1.0000) translate(0,0)"><g class="path" style="opacity: 1; transform-origin: -138.68px -10.52px; transform: matrix3d(1, 0, 0, 0, 0, 1, 0, 0, 0, 0, 1, 0, 0, 0, 0, 1); animation: 1s linear -0.6s infinite normal forwards running animate-stqoejbe9cf; transform-box: view-box;"><path d="M5.76 39.61L5.76-20.31L12.16-21.03L12.16 39.61L5.76 39.61" style="fill: rgb(235, 0, 41);" transform="translate(-147.640,-19.807)"></path></g><g class="path" style="opacity: 1; transform-origin: -106.76px -0.2px; transform: matrix3d(1, 0, 0, 0, 0, 1, 0, 0, 0, 0, 1, 0, 0, 0, 0, 1); animation: 1s linear -0.54s infinite normal forwards running animate-stqoejbe9cf; transform-box: view-box;"><path d="M28.24 19.69L28.24 19.69Q28.24 27.45 31.72 31.25Q35.20 35.05 41.12 35.05L41.12 35.05Q46.96 35.05 50.24 31.29Q53.52 27.53 53.52 20.01L53.52 20.01Q53.52 12.01 50.04 8.09Q46.56 4.17 40.56 4.17L40.56 4.17Q34.56 4.17 31.40 8.05Q28.24 11.93 28.24 19.69 zM21.44 19.61L21.44 19.61Q21.44 13.53 23.36 9.49Q25.28 5.45 28.24 3.01Q31.20 0.57 34.60-0.43Q38-1.43 41.04-1.43L41.04-1.43Q43.92-1.43 47.32-0.51Q50.72 0.41 53.60 2.77Q56.48 5.13 58.40 9.09Q60.32 13.05 60.32 19.13L60.32 19.13Q60.32 25.45 58.36 29.61Q56.40 33.77 53.44 36.21Q50.48 38.65 47.04 39.65Q43.60 40.65 40.64 40.65L40.64 40.65Q37.60 40.65 34.24 39.69Q30.88 38.73 28.04 36.37Q25.20 34.01 23.32 29.93Q21.44 25.85 21.44 19.61" style="fill: rgb(235, 0, 41);" transform="translate(-147.640,-19.807)"></path></g><g class="path" style="opacity: 1; transform-origin: -65.08px -0.2px; transform: matrix3d(1, 0, 0, 0, 0, 1, 0, 0, 0, 0, 1, 0, 0, 0, 0, 1); animation: 1s linear -0.48s infinite normal forwards running animate-stqoejbe9cf; transform-box: view-box;"><path d="M92 30.25L92 21.13Q90.40 21.21 88.96 21.29Q87.52 21.37 86.12 21.49Q84.72 21.61 83.60 21.77L83.60 21.77Q77.84 22.49 75.44 24.29Q73.04 26.09 73.04 29.45L73.04 29.45Q73.04 32.25 74.76 33.65Q76.48 35.05 79.28 35.05L79.28 35.05Q83.12 35.05 86.12 33.73Q89.12 32.41 92 30.25L92 30.25 zM92.72 40.25L91.92 35.85Q88.16 38.01 84.92 39.33Q81.68 40.65 77.92 40.65L77.92 40.65Q72.56 40.65 69.40 38.05Q66.24 35.45 66.24 29.45L66.24 29.45Q66.24 26.33 67.84 24.01Q69.44 21.69 72.04 20.13Q74.64 18.57 77.92 17.69Q81.20 16.81 84.64 16.57L84.64 16.57Q86.08 16.41 88.40 16.29Q90.72 16.17 92 16.09L92 16.09Q92 13.29 91.84 11.09Q91.68 8.89 90.88 7.33Q90.08 5.77 88.52 4.97Q86.96 4.17 84.08 4.17L84.08 4.17Q81.76 4.17 79.60 4.45Q77.44 4.73 75.76 5.05L75.76 5.05Q73.76 5.45 72.08 5.93L72.08 5.93L70.80 0.41Q72.80-0.07 75.12-0.47L75.12-0.47Q77.12-0.87 79.76-1.15Q82.40-1.43 85.44-1.43L85.44-1.43Q89.52-1.43 92.04-0.23Q94.56 0.97 95.96 3.01Q97.36 5.05 97.88 7.65Q98.40 10.25 98.40 13.13L98.40 13.13L98.40 32.33Q98.40 33.45 98.44 34.69Q98.48 35.93 98.60 37.13Q98.72 38.33 98.88 39.61L98.88 39.61L92.72 40.25" style="fill: rgb(235, 0, 41);" transform="translate(-147.640,-19.807)"></path></g><g class="path" style="opacity: 1; transform-origin: -23.04px -10px; transform: matrix3d(1, 0, 0, 0, 0, 1, 0, 0, 0, 0, 1, 0, 0, 0, 0, 1); animation: 1s linear -0.42s infinite normal forwards running animate-stqoejbe9cf; transform-box: view-box;"><path d="M134.80 30.81L134.80 5.37Q131.92 4.57 130.32 4.37Q128.72 4.17 127.04 4.17L127.04 4.17Q123.68 4.17 121.28 5.37Q118.88 6.57 117.32 8.69Q115.76 10.81 115.04 13.57Q114.32 16.33 114.32 19.45L114.32 19.45Q114.32 22.25 114.92 25.05Q115.52 27.85 116.80 30.09Q118.08 32.33 119.92 33.69Q121.76 35.05 124.32 35.05L124.32 35.05Q126.08 35.05 127.96 34.41Q129.84 33.77 131.44 32.93Q133.04 32.09 134.80 30.81L134.80 30.81 zM135.52 40.25L134.88 36.41Q133.04 37.69 131.32 38.53Q129.60 39.37 127.56 40.01Q125.52 40.65 123.60 40.65L123.60 40.65Q116.08 40.65 111.80 35.33Q107.52 30.01 107.52 19.77L107.52 19.77Q107.52 13.69 109.48 9.61Q111.44 5.53 114.40 3.09Q117.36 0.65 120.76-0.39Q124.16-1.43 127.04-1.43L127.04-1.43Q128.48-1.43 130.08-1.23Q131.68-1.03 134.80-0.23L134.80-0.23L134.80-20.31L141.20-21.03L141.20 32.33Q141.20 33.45 141.24 34.69Q141.28 35.93 141.40 37.13Q141.52 38.33 141.68 39.61L141.68 39.61L135.52 40.25" style="fill: rgb(235, 0, 41);" transform="translate(-147.640,-19.807)"></path></g><g class="path" style="opacity: 1; transform-origin: 8.36px -0.72px; transform: matrix3d(1, 0, 0, 0, 0, 1, 0, 0, 0, 0, 1, 0, 0, 0, 0, 1); animation: 1s linear -0.36s infinite normal forwards running animate-stqoejbe9cf; transform-box: view-box;"><path d="M152.80 39.61L152.80-0.71L159.20-1.43L159.20 39.61L152.80 39.61" style="fill: rgb(235, 0, 41);" transform="translate(-147.640,-19.807)"></path></g><g class="path" style="opacity: 1; transform-origin: 8.56px -31.96px; transform: matrix3d(1, 0, 0, 0, 0, 1, 0, 0, 0, 0, 1, 0, 0, 0, 0, 1); animation: 1s linear -0.3s infinite normal forwards running animate-stqoejbe9cf; transform-box: view-box;"><path d="M151.76-12.15L151.76-12.15Q151.76-13.99 153-15.23Q154.24-16.47 156.08-16.47L156.08-16.47Q158-16.47 159.32-15.23Q160.64-13.99 160.64-12.15L160.64-12.15Q160.64-10.31 159.32-9.07Q158-7.83 156.08-7.83L156.08-7.83Q154.24-7.83 153-9.07Q151.76-10.31 151.76-12.15" style="fill: rgb(235, 0, 41);" transform="translate(-147.640,-19.807)"></path></g><g class="path" style="opacity: 1; transform-origin: 39.16px -0.72px; transform: matrix3d(1, 0, 0, 0, 0, 1, 0, 0, 0, 0, 1, 0, 0, 0, 0, 1); animation: 1s linear -0.24s infinite normal forwards running animate-stqoejbe9cf; transform-box: view-box;"><path d="M170.80 39.61L170.80 7.37Q170.88 5.69 170.40 0.09L170.40 0.09L176.32-0.71L177.20 4.41Q179.60 2.81 181.96 1.61Q184.32 0.41 186.80-0.51Q189.28-1.43 191.60-1.43L191.60-1.43Q194.88-1.43 197.08-0.67Q199.28 0.09 200.64 1.85Q202 3.61 202.60 6.49Q203.20 9.37 203.20 13.69L203.20 13.69L203.20 39.61L196.80 39.61L196.80 14.41Q196.80 12.01 196.72 10.13Q196.64 8.25 196.04 6.93Q195.44 5.61 194.20 4.89Q192.96 4.17 190.72 4.17L190.72 4.17Q188.64 4.17 186.32 5.09Q184 6.01 181.76 7.21Q179.52 8.41 177.20 10.01L177.20 10.01L177.20 39.61L170.80 39.61" style="fill: rgb(235, 0, 41);" transform="translate(-147.640,-19.807)"></path></g><g class="path" style="opacity: 1; transform-origin: 81.52px 9px; transform: matrix3d(1, 0, 0, 0, 0, 1, 0, 0, 0, 0, 1, 0, 0, 0, 0, 1); animation: 1s linear -0.18s infinite normal forwards running animate-stqoejbe9cf; transform-box: view-box;"><path d="M246 0.33L246 43.45Q246 46.41 245.36 49.21Q244.72 52.01 242.92 54.21Q241.12 56.41 237.88 57.73Q234.64 59.05 229.36 59.05L229.36 59.05Q226 58.97 223.52 58.65Q221.04 58.33 218.80 57.73Q216.56 57.13 214.72 56.33L214.72 56.33L216.40 50.73Q219.52 52.09 222.76 52.81Q226 53.53 228.56 53.53L228.56 53.53Q231.36 53.53 233.44 52.97Q235.52 52.41 236.92 51.09Q238.32 49.77 239 47.61Q239.68 45.45 239.68 42.25L239.68 42.25L239.68 36.41Q238 37.53 236.20 38.45Q234.40 39.37 232.36 40.01Q230.32 40.65 228.40 40.65L228.40 40.65Q220.96 40.65 216.64 35.41Q212.32 30.17 212.32 19.77L212.32 19.77Q212.32 13.77 214.20 9.73Q216.08 5.69 218.96 3.21Q221.84 0.73 225.28-0.35Q228.72-1.43 231.84-1.43L231.84-1.43Q235.92-1.43 239.32-0.75Q242.72-0.07 246 0.33L246 0.33 zM229.12 35.05L229.12 35.05Q230.88 35.05 232.72 34.41Q234.56 33.77 236.28 32.89Q238 32.01 239.68 30.81L239.68 30.81L239.68 5.29Q238.72 5.05 237.44 4.73L237.44 4.73Q236.32 4.57 234.88 4.37Q233.44 4.17 231.84 4.17L231.84 4.17Q228.48 4.17 226.08 5.37Q223.68 6.57 222.12 8.65Q220.56 10.73 219.84 13.53Q219.12 16.33 219.12 19.45L219.12 19.45Q219.12 22.25 219.72 25.05Q220.32 27.85 221.60 30.09Q222.88 32.33 224.72 33.69Q226.56 35.05 229.12 35.05" style="fill: rgb(235, 0, 41);" transform="translate(-147.640,-19.807)"></path></g><g class="path" style="opacity: 1; transform-origin: 113.04px 15.08px; transform: matrix3d(1, 0, 0, 0, 0, 1, 0, 0, 0, 0, 1, 0, 0, 0, 0, 1); animation: 1s linear -0.12s infinite normal forwards running animate-stqoejbe9cf; transform-box: view-box;"><path d="M255.84 34.89L255.84 34.89Q255.84 32.97 257.20 31.57Q258.56 30.17 260.56 30.17L260.56 30.17Q262.64 30.17 264.08 31.57Q265.52 32.97 265.52 34.89L265.52 34.89Q265.52 36.89 264.08 38.25Q262.64 39.61 260.56 39.61L260.56 39.61Q258.56 39.61 257.20 38.25Q255.84 36.89 255.84 34.89" style="fill: rgb(235, 0, 41);" transform="translate(-147.640,-19.807)"></path></g><g class="path" style="opacity: 1; transform-origin: 130.8px 15.08px; transform: matrix3d(1, 0, 0, 0, 0, 1, 0, 0, 0, 0, 1, 0, 0, 0, 0, 1); animation: 1s linear -0.06s infinite normal forwards running animate-stqoejbe9cf; transform-box: view-box;"><path d="M273.60 34.89L273.60 34.89Q273.60 32.97 274.96 31.57Q276.32 30.17 278.32 30.17L278.32 30.17Q280.40 30.17 281.84 31.57Q283.28 32.97 283.28 34.89L283.28 34.89Q283.28 36.89 281.84 38.25Q280.40 39.61 278.32 39.61L278.32 39.61Q276.32 39.61 274.96 38.25Q273.60 36.89 273.60 34.89" style="fill: rgb(235, 0, 41);" transform="translate(-147.640,-19.807)"></path></g><g class="path" style="opacity: 1; transform-origin: 148.56px 15.08px; transform: matrix3d(1, 0, 0, 0, 0, 1, 0, 0, 0, 0, 1, 0, 0, 0, 0, 1); animation: 1s linear 0s infinite normal forwards running animate-stqoejbe9cf; transform-box: view-box;"><path d="M291.36 34.89L291.36 34.89Q291.36 32.97 292.72 31.57Q294.08 30.17 296.08 30.17L296.08 30.17Q298.16 30.17 299.60 31.57Q301.04 32.97 301.04 34.89L301.04 34.89Q301.04 36.89 299.60 38.25Q298.16 39.61 296.08 39.61L296.08 39.61Q294.08 39.61 292.72 38.25Q291.36 36.89 291.36 34.89" style="fill: rgb(235, 0, 41);" transform="translate(-147.640,-19.807)"></path></g></g><text font-size="80" font-family="Actor" fill="#eb0029" dy="0.35em">loading...</text>
</g>
</g><style type="text/css">@keyframes animate-stqoejbe9cf { 0.00% {transform: translate(0.00px,0.00px) rotate(0.00deg) scale(1.00, 1.00) skew(0deg, 0.00deg) ;opacity: 1.00;}2.00% {animation-timing-function: cubic-bezier(0.11,0.68,0.32,1.00);transform: translate(0.00px,0.00px) rotate(0.00deg) ;opacity: 0.79;}52.00% {animation-timing-function: cubic-bezier(0.66,0.00,0.88,0.35);transform: translate(0.00px,0.00px) rotate(0.00deg) ;opacity: 0.50;}100.00% {animation-timing-function: cubic-bezier(0.66,0.00,0.88,0.35);transform: translate(0.00px,0.00px) rotate(0.00deg) ;opacity: 0.00;} }</style><!-- [ldio] generated by https://loading.io --></svg>